<svg xmlns="http://www.w3.org/2000/svg" xmlns:xlink="http://www.w3.org/1999/xlink" version="1.1" width="124" height="124" style="" xml:space="preserve"><rect id="backgroundrect" width="100%" height="100%" x="0" y="0" fill="none" stroke="none"/> <g class="currentLayer" style=""><title>Layer 1</title><g id="svg_1" class="" fill="#ffffff" fill-opacity="1"><g id="svg_2" fill="#ffffff" fill-opacity="1">
	<path d="M112,6H12C5.4,6,0,11.4,0,18s5.4,12,12,12h100c6.6,0,12-5.4,12-12S118.6,6,112,6z" data-original="#000000" class="hovered-path active-path" fill="#ffffff" id="svg_3" fill-opacity="1"/>
	<path d="M112,50H12C5.4,50,0,55.4,0,62c0,6.6,5.4,12,12,12h100c6.6,0,12-5.4,12-12C124,55.4,118.6,50,112,50z" data-original="#000000" class="hovered-path active-path" fill="#ffffff" id="svg_4" fill-opacity="1"/>
	<path d="M112,94H12c-6.6,0-12,5.4-12,12s5.4,12,12,12h100c6.6,0,12-5.4,12-12S118.6,94,112,94z" data-original="#000000" class="hovered-path active-path" fill="#ffffff" id="svg_5" fill-opacity="1"/>
</g></g></g></svg>